{
  "accessors": [
    {
      "bufferView": 2,
      "componentType": 5126,
      "count": 26381,
      "max": [
        0.043824922293424606,
        0.07505835592746735,
        0.043999116867780685
      ],
      "min": [
        -0.043824922293424606,
        -0.07505835592746735,
        -0.04399912431836128
      ],
      "type": "VEC3"
    },
    {
      "bufferView": 2,
      "byteOffset": 316572,
      "componentType": 5126,
      "count": 26381,
      "max": [
        0.9986205697059631,
        1.0,
        0.998620331287384
      ],
      "min": [
        -0.9986205101013184,
        -1.0,
        -0.9992275238037109
      ],
      "type": "VEC3"
    },
    {
      "bufferView": 1,
      "componentType": 5126,
      "count": 26381,
      "max": [
        0.9955428838729858,
        1.0
      ],
      "min": [
        -0.016666650772094727,
        0.0
      ],
      "type": "VEC2"
    },
    {
      "bufferView": 0,
      "componentType": 5125,
      "count": 156720,
      "type": "SCALAR"
    },
    {
      "bufferView": 2,
      "byteOffset": 633144,
      "componentType": 5126,
      "count": 25585,
      "max": [
        0.0467735230922699,
        0.011490522883832455,
        0.04666551947593689
      ],
      "min": [
        -0.046773530542850494,
        -0.011490524746477604,
        -0.04666551947593689
      ],
      "type": "VEC3"
    },
    {
      "bufferView": 2,
      "byteOffset": 940164,
      "componentType": 5126,
      "count": 25585,
      "max": [
        1.0,
        1.0,
        1.0
      ],
      "min": [
        -1.0,
        -1.0,
        -1.0
      ],
      "type": "VEC3"
    },
    {
      "bufferView": 1,
      "byteOffset": 211048,
      "componentType": 5126,
      "count": 25585,
      "max": [
        1.0125855207443237,
        1.0
      ],
      "min": [
        -0.012585880234837532,
        0.0
      ],
      "type": "VEC2"
    },
    {
      "bufferView": 0,
      "byteOffset": 626880,
      "componentType": 5125,
      "count": 152784,
      "type": "SCALAR"
    },
    {
      "bufferView": 2,
      "byteOffset": 1247184,
      "componentType": 5126,
      "count": 20936,
      "max": [
        0.04203849285840988,
        0.07268767058849335,
        0.04193887859582901
      ],
      "min": [
        -0.04203849285840988,
        -0.07268767058849335,
        -0.04193888232111931
      ],
      "type": "VEC3"
    },
    {
      "bufferView": 2,
      "byteOffset": 1498416,
      "componentType": 5126,
      "count": 20936,
      "max": [
        0.9968634247779846,
        0.9641696810722351,
        0.9968634843826294
      ],
      "min": [
        -0.9968634247779846,
        -0.9922763705253601,
        -0.9968585968017578
      ],
      "type": "VEC3"
    },
    {
      "bufferView": 1,
      "byteOffset": 415728,
      "componentType": 5126,
      "count": 20936,
      "max": [
        1.0000165700912476,
        1.0030845403671265
      ],
      "min": [
        -1.649366458877921e-05,
        -2.86102294921875e-05
      ],
      "type": "VEC2"
    },
    {
      "bufferView": 0,
      "byteOffset": 1238016,
      "componentType": 5125,
      "count": 120732,
      "type": "SCALAR"
    },
    {
      "bufferView": 2,
      "byteOffset": 1749648,
      "componentType": 5126,
      "count": 26381,
      "max": [
        0.043824922293424606,
        0.07505835592746735,
        0.043999116867780685
      ],
      "min": [
        -0.043824922293424606,
        -0.07505835592746735,
        -0.04399912431836128
      ],
      "type": "VEC3"
    },
    {
      "bufferView": 2,
      "byteOffset": 2066220,
      "componentType": 5126,
      "count": 26381,
      "max": [
        0.9986205697059631,
        1.0,
        0.998620331287384
      ],
      "min": [
        -0.9986205101013184,
        -1.0,
        -0.9992275238037109
      ],
      "type": "VEC3"
    },
    {
      "bufferView": 1,
      "byteOffset": 583216,
      "componentType": 5126,
      "count": 26381,
      "max": [
        0.9955428838729858,
        1.0
      ],
      "min": [
        -0.016666650772094727,
        0.0
      ],
      "type": "VEC2"
    },
    {
      "bufferView": 0,
      "byteOffset": 1720944,
      "componentType": 5125,
      "count": 156720,
      "type": "SCALAR"
    },
    {
      "bufferView": 2,
      "byteOffset": 2382792,
      "componentType": 5126,
      "count": 20936,
      "max": [
        0.04203849285840988,
        0.07268767058849335,
        0.04193887859582901
      ],
      "min": [
        -0.04203849285840988,
        -0.07268767058849335,
        -0.04193888232111931
      ],
      "type": "VEC3"
    },
    {
      "bufferView": 2,
      "byteOffset": 2634024,
      "componentType": 5126,
      "count": 20936,
      "max": [
        0.9968634247779846,
        0.9641696810722351,
        0.9968634843826294
      ],
      "min": [
        -0.9968634247779846,
        -0.9922763705253601,
        -0.9968585968017578
      ],
      "type": "VEC3"
    },
    {
      "bufferView": 1,
      "byteOffset": 794264,
      "componentType": 5126,
      "count": 20936,
      "max": [
        1.0000165700912476,
        1.0030845403671265
      ],
      "min": [
        -1.649366458877921e-05,
        -2.86102294921875e-05
      ],
      "type": "VEC2"
    },
    {
      "bufferView": 0,
      "byteOffset": 2347824,
      "componentType": 5125,
      "count": 120732,
      "type": "SCALAR"
    },
    {
      "bufferView": 2,
      "byteOffset": 2885256,
      "componentType": 5126,
      "count": 25585,
      "max": [
        0.0467735230922699,
        0.011490522883832455,
        0.04666551947593689
      ],
      "min": [
        -0.046773530542850494,
        -0.011490524746477604,
        -0.04666551947593689
      ],
      "type": "VEC3"
    },
    {
      "bufferView": 2,
      "byteOffset": 3192276,
      "componentType": 5126,
      "count": 25585,
      "max": [
        1.0,
        1.0,
        1.0
      ],
      "min": [
        -1.0,
        -1.0,
        -1.0
      ],
      "type": "VEC3"
    },
    {
      "bufferView": 1,
      "byteOffset": 961752,
      "componentType": 5126,
      "count": 25585,
      "max": [
        1.0125855207443237,
        1.0
      ],
      "min": [
        -0.012585880234837532,
        0.0
      ],
      "type": "VEC2"
    },
    {
      "bufferView": 0,
      "byteOffset": 2830752,
      "componentType": 5125,
      "count": 152784,
      "type": "SCALAR"
    }
  ],
  "asset": {
    "extras": {
      "author": "doanln16 (https://sketchfab.com/doanln16)",
      "license": "CC-BY-4.0 (http://creativecommons.org/licenses/by/4.0/)",
      "source": "https://sketchfab.com/3d-models/test-glb-c527e3e8221445fdb158017efb6880e8",
      "title": "test glb"
    },
    "generator": "Sketchfab-12.68.0",
    "version": "2.0"
  },
  "bufferViews": [
    {
      "buffer": 0,
      "byteLength": 3441888,
      "name": "floatBufferViews",
      "target": 34963
    },
    {
      "buffer": 0,
      "byteLength": 1166432,
      "byteOffset": 3441888,
      "byteStride": 8,
      "name": "floatBufferViews",
      "target": 34962
    },
    {
      "buffer": 0,
      "byteLength": 3499296,
      "byteOffset": 4608320,
      "byteStride": 12,
      "name": "floatBufferViews",
      "target": 34962
    }
  ],
  "buffers": [
    {
      "byteLength": 8107616,
      "uri": "scene.bin"
    }
  ],
  "images": [
    {
      "uri": "textures/Mat_truoc_coc_nhua_1_Set16_baseColor.png"
    }
  ],
  "materials": [
    {
      "name": "Than_coc",
      "pbrMetallicRoughness": {
        "baseColorFactor": [
          0.862745,
          0.862745,
          0.862745,
          1.0
        ],
        "metallicFactor": 0.0,
        "roughnessFactor": 0.358473
      }
    },
    {
      "name": "Nap_coc",
      "pbrMetallicRoughness": {
        "baseColorFactor": [
          0.94902,
          0.113725,
          0.0196078,
          1.0
        ],
        "metallicFactor": 0.0,
        "roughnessFactor": 0.304817
      }
    },
    {
      "name": "Mat_truoc_coc_nhua_1_Set16",
      "pbrMetallicRoughness": {
        "baseColorTexture": {
          "index": 0
        },
        "metallicFactor": 0.0,
        "roughnessFactor": 0.450054
      }
    }
  ],
  "meshes": [
    {
      "name": "Object_0",
      "primitives": [
        {
          "attributes": {
            "NORMAL": 1,
            "POSITION": 0,
            "TEXCOORD_0": 2
          },
          "indices": 3,
          "material": 0,
          "mode": 4
        }
      ]
    },
    {
      "name": "Object_1",
      "primitives": [
        {
          "attributes": {
            "NORMAL": 5,
            "POSITION": 4,
            "TEXCOORD_0": 6
          },
          "indices": 7,
          "material": 1,
          "mode": 4
        }
      ]
    },
    {
      "name": "Object_2",
      "primitives": [
        {
          "attributes": {
            "NORMAL": 9,
            "POSITION": 8,
            "TEXCOORD_0": 10
          },
          "indices": 11,
          "material": 2,
          "mode": 4
        }
      ]
    },
    {
      "name": "Object_3",
      "primitives": [
        {
          "attributes": {
            "NORMAL": 13,
            "POSITION": 12,
            "TEXCOORD_0": 14
          },
          "indices": 15,
          "material": 0,
          "mode": 4
        }
      ]
    },
    {
      "name": "Object_4",
      "primitives": [
        {
          "attributes": {
            "NORMAL": 17,
            "POSITION": 16,
            "TEXCOORD_0": 18
          },
          "indices": 19,
          "material": 2,
          "mode": 4
        }
      ]
    },
    {
      "name": "Object_5",
      "primitives": [
        {
          "attributes": {
            "NORMAL": 21,
            "POSITION": 20,
            "TEXCOORD_0": 22
          },
          "indices": 23,
          "material": 1,
          "mode": 4
        }
      ]
    }
  ],
  "nodes": [
    {
      "children": [
        1
      ],
      "matrix": [
        1.0,
        0.0,
        0.0,
        0.0,
        0.0,
        2.220446049250313e-16,
        -1.0,
        0.0,
        0.0,
        1.0,
        2.220446049250313e-16,
        0.0,
        0.0,
        0.0,
        0.0,
        1.0
      ],
      "name": "Sketchfab_model"
    },
    {
      "children": [
        2
      ],
      "name": "root"
    },
    {
      "children": [
        3,
        5,
        7,
        9,
        11,
        13
      ],
      "matrix": [
        1.0,
        0.0,
        0.0,
        0.0,
        0.0,
        2.220446049250313e-16,
        1.0,
        0.0,
        0.0,
        -1.0,
        2.220446049250313e-16,
        0.0,
        0.0,
        0.0,
        0.0,
        1.0
      ],
      "name": "GLTF_SceneRootNode"
    },
    {
      "children": [
        4
      ],
      "matrix": [
        1.0,
        0.0,
        0.0,
        0.0,
        0.0,
        1.0,
        0.0,
        0.0,
        0.0,
        0.0,
        1.0,
        0.0,
        0.0,
        -0.023754602298140526,
        0.10386833548545837,
        1.0
      ],
      "name": "Cone001_0"
    },
    {
      "mesh": 0,
      "name": "Object_4"
    },
    {
      "children": [
        6
      ],
      "matrix": [
        1.0,
        0.0,
        0.0,
        0.0,
        0.0,
        1.0,
        0.0,
        0.0,
        0.0,
        0.0,
        1.0,
        0.0,
        0.0,
        0.05999293178319931,
        0.10404287278652191,
        1.0
      ],
      "name": "Cylinder001_1"
    },
    {
      "mesh": 1,
      "name": "Object_6"
    },
    {
      "children": [
        8
      ],
      "matrix": [
        1.0,
        0.0,
        0.0,
        0.0,
        0.0,
        1.0,
        0.0,
        0.0,
        0.0,
        0.0,
        1.0,
        0.0,
        -1.907348723406699e-09,
        -0.02530442178249359,
        0.10414216667413712,
        1.0
      ],
      "name": "Cone002_2"
    },
    {
      "mesh": 2,
      "name": "Object_8"
    },
    {
      "children": [
        10
      ],
      "matrix": [
        1.0,
        0.0,
        0.0,
        0.0,
        0.0,
        1.0,
        0.0,
        0.0,
        0.0,
        0.0,
        1.0,
        0.0,
        -0.12882179021835327,
        -0.023754602298140526,
        0.10386833548545837,
        1.0
      ],
      "name": "Cone003_3"
    },
    {
      "mesh": 3,
      "name": "Object_10"
    },
    {
      "children": [
        12
      ],
      "matrix": [
        1.0,
        0.0,
        0.0,
        0.0,
        0.0,
        1.0,
        0.0,
        0.0,
        0.0,
        0.0,
        1.0,
        0.0,
        -0.12882179021835327,
        -0.02530442178249359,
        0.10414216667413712,
        1.0
      ],
      "name": "Cone004_4"
    },
    {
      "mesh": 4,
      "name": "Object_12"
    },
    {
      "children": [
        14
      ],
      "matrix": [
        0.9503137364452889,
        0.19231726397757165,
        0.24478103090372186,
        0.0,
        -0.2902519480090367,
        0.8316109449450667,
        0.47347325554380215,
        0.0,
        -0.11250551004758505,
        -0.5209963406920131,
        0.8461118152969964,
        0.0,
        -0.2425258904695511,
        -0.061979904770851135,
        0.1084623858332634,
        1.0
      ],
      "name": "Cylinder002_5"
    },
    {
      "mesh": 5,
      "name": "Object_14"
    }
  ],
  "samplers": [
    {
      "magFilter": 9729,
      "minFilter": 9987,
      "wrapS": 10497,
      "wrapT": 10497
    }
  ],
  "scene": 0,
  "scenes": [
    {
      "name": "Sketchfab_Scene",
      "nodes": [
        0
      ]
    }
  ],
  "textures": [
    {
      "sampler": 0,
      "source": 0
    }
  ]
}
